<svg xmlns="http://www.w3.org/2000/svg" viewBox="0 0 32 32" width="32" height="32" shape-rendering="crispEdges">
  <rect width="32" height="32" fill="#2FA84F"/>
  <rect x="3" y="3" width="26" height="26" fill="#0B0E13"/>
  <!-- pelota: círculo blanco aproximado en píxeles -->
  <rect x="11" y="5" width="10" height="2" fill="#F4F7EF"/>
  <rect x="8" y="7" width="16" height="2" fill="#F4F7EF"/>
  <rect x="6" y="9" width="20" height="4" fill="#F4F7EF"/>
  <rect x="5" y="13" width="22" height="6" fill="#F4F7EF"/>
  <rect x="6" y="19" width="20" height="4" fill="#F4F7EF"/>
  <rect x="8" y="23" width="16" height="2" fill="#F4F7EF"/>
  <rect x="11" y="25" width="10" height="2" fill="#F4F7EF"/>
  <!-- pentágono central negro -->
  <rect x="13" y="13" width="6" height="2" fill="#0B0E13"/>
  <rect x="12" y="15" width="8" height="3" fill="#0B0E13"/>
  <rect x="14" y="18" width="4" height="2" fill="#0B0E13"/>
  <!-- detalles laterales -->
  <rect x="6" y="11" width="3" height="3" fill="#0B0E13"/>
  <rect x="23" y="11" width="3" height="3" fill="#0B0E13"/>
  <rect x="9" y="22" width="3" height="2" fill="#0B0E13"/>
  <rect x="20" y="22" width="3" height="2" fill="#0B0E13"/>
</svg>
